<?xml version="1.0" encoding="UTF-8" standalone="no"?>
<svg
   xmlns:dc="http://purl.org/dc/elements/1.1/"
   xmlns:cc="http://creativecommons.org/ns#"
   xmlns:rdf="http://www.w3.org/1999/02/22-rdf-syntax-ns#"
   xmlns:svg="http://www.w3.org/2000/svg"
   xmlns="http://www.w3.org/2000/svg"
   xmlns:sodipodi="http://sodipodi.sourceforge.net/DTD/sodipodi-0.dtd"
   xmlns:inkscape="http://www.inkscape.org/namespaces/inkscape"
   version="1"
   width="1365.333"
   height="1365.333"
   viewBox="0 0 1024.000000 1024.000000"
   id="svg4"
   sodipodi:docname="favicon.svg"
   inkscape:version="1.0.2 (e86c870879, 2021-01-15)">
  <metadata
     id="metadata10">
    <rdf:RDF>
      <cc:Work
         rdf:about="">
        <dc:format>image/svg+xml</dc:format>
        <dc:type
           rdf:resource="http://purl.org/dc/dcmitype/StillImage" />
        <dc:title></dc:title>
      </cc:Work>
    </rdf:RDF>
  </metadata>
  <defs
     id="defs8" />
  <sodipodi:namedview
     pagecolor="#ffffff"
     bordercolor="#666666"
     borderopacity="1"
     objecttolerance="10"
     gridtolerance="10"
     guidetolerance="10"
     inkscape:pageopacity="0"
     inkscape:pageshadow="2"
     inkscape:window-width="1368"
     inkscape:window-height="825"
     id="namedview6"
     showgrid="false"
     inkscape:zoom="0.43286143"
     inkscape:cx="682.6665"
     inkscape:cy="682.6665"
     inkscape:window-x="0"
     inkscape:window-y="28"
     inkscape:window-maximized="1"
     inkscape:current-layer="svg4" />
  <path
     d="M206.7 138.6c-.1.1-4.9.4-10.7.7-23.7 1.1-43.1 9.7-59.4 26-8.8 8.8-12.5 13.6-17 21.8-3.5 6.4-8.9 19.9-8 19.9.2 0 .1.8-.5 1.7-.5 1-1.2 4.5-1.7 7.8-1 7.6-1.1 209.2-.1 216 3.2 21.2 12.4 38.4 28.9 54 12.8 12.3 27.5 19.7 46.3 23.6 4.3.9 23.7 1.3 69.5 1.4 70.5.2 68.9 0 80.3 6.9 11 6.7 18.9 17.9 21.3 30.2 1.1 6.3 1.1 32.9 0 41.9-1 7.1-3.3 17-5.7 23.8-2.4 7.2-10.7 24.1-12 24.5-.5.2-.9.8-.9 1.4 0 .6-2.9 4.7-6.5 9.3-17.9 23-44.9 40.3-70.5 45.4-3 .6-6.8 1.3-8.5 1.7-1.6.3-14.2.7-27.9.9-13.7.2-26.5.6-28.5 1-8.6 1.6-17.7 9.3-22 18.5l-2.5 5.5-.1 35.5c-.1 35.9.3 40.8 3.7 47.5 2.5 4.6 9.2 11 14.5 13.6 4.7 2.4 5.3 2.4 33.3 2.4 29.7 0 34.9-.3 51.5-3 27.1-4.4 57.9-15.4 83.1-29.7 23.6-13.5 50.7-36.6 67.7-57.8 25.6-31.9 46.3-76.2 52.2-111.5.2-1.7.9-5.3 1.4-8 .5-2.8 1.3-8.8 1.8-13.5 1-10.4 1.1-374.7.1-381-4-25-19.1-48.4-40.3-62.5-13.9-9.3-26-13.6-42.1-15.1-5.5-.5-190.1-1.2-190.7-.8zM635.7 138.6c-.1.1-3.6.4-7.8.7-21.9 1.7-39.3 9.6-55.6 25-15.2 14.5-23.7 30-27.7 50.7-1.2 6.3-1.4 24.1-1.3 112.5.2 57.7.6 106.3 1 108 .5 1.6 1.3 4.8 1.8 7 5.4 21.1 19.9 41 39.3 54 10.8 7.2 22.8 11.7 37.6 14.1 2.5.4 32.9.8 67.5.9 68.3.2 65.7 0 77 5.8 10.5 5.3 21.5 20.7 23.1 32.2 1.4 10.2.8 34-1.1 46.5-2.2 13.8-9.9 33-18.2 45.3-4.1 6.1-18.1 22.4-21.5 25.2-18.8 15.3-33 22.9-51.4 27.4-12.8 3.2-12.2 3.1-41.3 3.6-16.1.3-27.8.9-30 1.6-8.8 2.9-18.2 12.8-20.6 21.7-1.8 6.9-1.7 72.8.1 78.8 3 10 10.4 17.3 21.4 21.2 2.5.9 55 1 62 .2 3.6-.5 9.2-1.2 12.5-1.5 3.3-.4 6.2-.9 6.5-1 .3-.2 2.6-.6 5-1 8.1-1.2 26.5-6.3 38.1-10.6 37.7-13.8 71.5-36.4 98.2-65.7 36.3-39.9 59.5-92.5 64.4-146.2.4-4.7.7-90.4.7-190.5 0-192.6.1-188-4.6-202.5-9.8-30.3-38.8-56-69.3-61.5-8.3-1.5-23.2-1.7-110.8-1.9h-95z"
     id="path2"
     style="fill:#38ff63;fill-opacity:1" />
</svg>
