<?xml version="1.0" encoding="UTF-8" standalone="no"?>
<svg
   version="1"
   width="1365.333"
   height="1365.333"
   viewBox="0 0 1024.000000 1024.000000"
   id="svg4"
   sodipodi:docname="favicon.svg"
   inkscape:version="1.1.2 (0a00cf5339, 2022-02-04)"
   inkscape:export-filename="/home/yasar/Workspace/percollate-api-client/public/apple-touch-icon.png"
   inkscape:export-xdpi="12.66"
   inkscape:export-ydpi="12.66"
   xmlns:inkscape="http://www.inkscape.org/namespaces/inkscape"
   xmlns:sodipodi="http://sodipodi.sourceforge.net/DTD/sodipodi-0.dtd"
   xmlns="http://www.w3.org/2000/svg"
   xmlns:svg="http://www.w3.org/2000/svg"
   xmlns:rdf="http://www.w3.org/1999/02/22-rdf-syntax-ns#"
   xmlns:cc="http://creativecommons.org/ns#"
   xmlns:dc="http://purl.org/dc/elements/1.1/">
  <metadata
     id="metadata10">
    <rdf:RDF>
      <cc:Work
         rdf:about="">
        <dc:format>image/svg+xml</dc:format>
        <dc:type
           rdf:resource="http://purl.org/dc/dcmitype/StillImage" />
        <dc:title />
      </cc:Work>
    </rdf:RDF>
  </metadata>
  <defs
     id="defs8" />
  <sodipodi:namedview
     pagecolor="#ffffff"
     bordercolor="#666666"
     borderopacity="1"
     objecttolerance="10"
     gridtolerance="10"
     guidetolerance="10"
     inkscape:pageopacity="0"
     inkscape:pageshadow="2"
     inkscape:window-width="1368"
     inkscape:window-height="843"
     id="namedview6"
     showgrid="false"
     inkscape:zoom="0.43286143"
     inkscape:cx="681.5114"
     inkscape:cy="681.5114"
     inkscape:window-x="0"
     inkscape:window-y="32"
     inkscape:window-maximized="1"
     inkscape:current-layer="svg4"
     inkscape:pagecheckerboard="0" />
  <path
     d="m 124.51172,78.677099 c -0.12692,0.12692 -6.21912,0.50768 -13.58053,0.88844 -30.080229,1.39613 -54.702869,12.31133 -75.390969,32.999421 -11.16903,11.16903 -15.8651,17.26123 -21.57654,27.66874 -4.44223,8.12294 -11.29596,25.25725 -10.15367,25.25725 0.25384,0 0.12692,1.01537 -0.6346,2.15765 -0.63461,1.26921 -1.52305,5.71144 -2.15766,9.89983 -1.26921004,9.64598 -1.39613004,265.51838 -0.12692004,274.149 4.06147004,26.90721 15.73819004,48.7376 36.68012004,68.53725 16.24587,15.61126 34.90323,25.0034 58.76435,29.95331 5.457589,1.14229 30.080239,1.64997 88.209979,1.77689 89.47918,0.25385 87.44845,0 101.91743,8.75754 13.96129,8.5037 23.98803,22.71883 27.03413,38.33009 1.39613,7.99602 1.39613,41.75696 0,53.17983 -1.2692,9.01138 -4.18838,21.57654 -7.23448,30.20716 -3.0461,9.1383 -13.58053,30.58792 -15.2305,31.09561 -0.63461,0.25384 -1.14229,1.01536 -1.14229,1.77689 0,0.76152 -3.68071,5.96528 -8.24986,11.80363 -22.71882,29.1918 -56.98745,51.1491 -89.47918,57.62206 -3.80763,0.76153 -8.63062,1.64997 -10.78827,2.15766 -2.03074,0.38076 -18.02276,0.88844 -35.41092,1.14228 -17.38815,0.25385 -33.63402,0.76153 -36.17243,1.26921 -10.915189,2.03074 -22.464989,11.80364 -27.922589,23.48036 l -3.17302,6.98063 -0.12692,45.0569 c -0.12692,45.56462 0.38076,51.78372 4.69607,60.28742 3.17302,5.8383 11.67672,13.9613 18.403519,17.2612 5.96528,3.0461 6.72681,3.0461 42.26464,3.0461 37.69549,0 44.29537,-0.3808 65.36423,-3.8076 34.39555,-5.5845 73.48716,-19.5458 105.47121,-37.69551 29.95332,-17.13431 64.34886,-46.45302 85.92541,-73.36024 32.49173,-40.48773 58.76434,-96.71366 66.25267,-141.51672 0.25384,-2.15765 1.14229,-6.7268 1.77689,-10.15366 0.63461,-3.55379 1.64997,-11.16904 2.28458,-17.13431 1.26921,-13.19977 1.39613,-475.57237 0.12692,-483.56838 -5.07683,-31.73021 -24.24188,-61.42968 -51.1491,-79.325521 -17.64199,-11.80364 -32.99941,-17.26123 -53.43367,-19.16504 -6.98064,-0.63461 -241.2765,-1.52305 -242.03803,-1.01537 z m 544.4905,0 c -0.12692,0.12692 -4.56915,0.50768 -9.89982,0.88844 -27.79579,2.15766 -49.88002,12.1844 -70.56811,31.730211 -19.29197,18.40352 -30.08024,38.07625 -35.15707,64.34887 -1.52305,7.99601 -1.77689,30.58792 -1.64997,142.78593 0.25384,73.23332 0.76152,134.91685 1.26921,137.0745 0.6346,2.03074 1.64997,6.0922 2.28457,8.88446 6.85373,26.7803 25.25725,52.03754 49.87989,68.53725 13.70745,9.1383 28.93795,14.84974 47.72236,17.89584 3.17302,0.50768 41.75695,1.01536 85.67156,1.14228 86.68693,0.25385 83.38699,0 97.72904,7.36141 13.32669,6.72681 27.28798,26.27262 29.31871,40.86851 1.7769,12.94593 1.01537,43.15308 -1.39613,59.01819 -2.79225,17.51507 -12.56516,41.88387 -23.09959,57.49514 -5.20375,7.74217 -22.97267,28.43026 -27.28798,31.98405 -23.86111,19.41888 -41.88387,29.06487 -65.2373,34.7763 -16.24587,4.06147 -15.48435,3.93455 -52.41831,4.56915 -20.43425,0.38077 -35.28399,1.14229 -38.07625,2.03074 -11.16903,3.6807 -23.09972,16.24586 -26.14582,27.54182 -2.28457,8.75752 -2.15765,92.39836 0.12692,100.01356 3.80763,12.6921 13.1999,21.9573 27.16119,26.9073 3.17302,1.1422 69.80646,1.2692 78.69092,0.2538 4.56915,-0.6346 11.67671,-1.523 15.8651,-1.9038 4.18839,-0.5077 7.86909,-1.1423 8.24985,-1.2692 0.38077,-0.2539 3.29995,-0.7615 6.34605,-1.2692 10.28058,-1.5231 33.63402,-7.996 48.35683,-13.4536 47.84916,-17.5151 90.74841,-46.19922 124.63631,-83.38702 46.0722,-50.6414 75.51782,-117.40176 81.73702,-185.55825 0.5077,-5.96528 0.8884,-114.73643 0.8884,-241.78419 0,-244.44952 0.1269,-238.61116 -5.8383,-257.01468 -12.4383,-38.45702 -49.24532,-71.075671 -87.95622,-78.056321 -10.5344,-1.90381 -29.4456,-2.15765 -140.62826,-2.41149 z"
     id="path2"
     style="fill:#38ff63;fill-opacity:1;stroke-width:1.26921"
     inkscape:export-filename="/home/yasar/Workspace/percollate-api-client/public/apple-touch-icon.png"
     inkscape:export-xdpi="12.66"
     inkscape:export-ydpi="12.66" />
</svg>
